<svg width="330" height="304" viewBox="0 0 330 304" fill="none" xmlns="http://www.w3.org/2000/svg">
<g clip-path="url(#clip0_14_97)">
<path d="M194.229 101.099C199.471 91.5246 204.84 82.0264 210.699 71.5338C208.501 71.5338 206.869 71.5001 205.246 71.5422C178.411 72.2586 151.584 72.9412 124.756 73.784C121.568 73.8852 118.313 74.5847 115.236 75.4949C91.3515 82.5237 72.523 105.321 70.2994 130.04C69.4793 139.133 70.4432 148.042 75.2539 156.899C76.3192 154.935 77.2746 153.562 77.8495 152.036C81.5357 142.193 88.57 137.81 99.0537 138.864C100.28 138.99 101.548 138.72 102.748 138.914C107.72 139.715 110.341 137.473 112.809 133.15C120.638 119.412 131.308 108.397 147.847 106.476C161.13 104.933 174.615 105.102 188.015 104.773C191.059 104.697 192.826 103.669 194.229 101.099Z" fill="#E8E42E"/>
<path d="M213.041 127.419C207.419 136.69 201.822 145.463 196.664 154.489C187.643 170.3 174.234 177.7 155.972 177.337C136.398 176.941 116.817 177.127 97.2442 177.261C95.418 177.27 92.7295 178.172 91.9263 179.528C85.8136 189.802 80.0812 200.303 73.9939 211.15C78.2043 211.15 81.7215 211.091 85.2386 211.158C109.275 211.605 133.312 212.321 157.359 212.389C163.852 212.405 170.835 211.672 176.779 209.27C201.568 199.258 214.935 180.405 217.995 153.958C219.061 144.696 218.57 135.973 213.041 127.419Z" fill="#E8E42E"/>
<path d="M118.626 138.99C124.451 138.721 130.082 138.56 135.704 138.173C138.452 137.979 140.906 137.802 141.709 141.898C147.002 132.686 152.294 123.475 157.671 114.12C142.47 111.111 123.53 123.129 118.626 138.99Z" fill="#E8E42E"/>
<path d="M167.403 113.362C166.49 113.379 165.179 113.977 164.756 114.71C160.326 122.472 156.04 130.319 151.787 138.022C158.475 138.022 164.604 138.157 170.725 137.912C172.103 137.862 173.989 136.833 174.691 135.679C178.969 128.608 182.968 121.377 187.567 113.303C180.237 113.303 173.82 113.252 167.403 113.362Z" fill="#E8E42E"/>
<path d="M167.682 150.781C161.577 150.975 156.209 156.765 156.293 163.06C156.352 167.94 158.61 169.988 163.953 170.005C169.246 170.022 175.316 163.456 175.477 157.548C175.57 153.84 171.892 150.646 167.682 150.781Z" fill="#E8E42E"/>
<path d="M89.2463 163.187C89.297 168.058 90.785 169.583 95.4519 169.575C101.632 169.558 107.559 163.616 107.517 157.464C107.5 154.194 103.991 151.042 100.381 151.034C94.2176 151.034 89.1702 156.537 89.2463 163.187Z" fill="#E8E42E"/>
<path d="M269.806 265.081C275.817 257.464 280.129 248.387 284.398 239.582C286.081 236.104 286.859 231.008 282.606 228.127C278.286 225.204 274.185 227.658 270.609 230.305C267.92 232.289 265.553 234.688 263.084 236.864C263.084 229.054 263.549 221.366 262.974 213.754C262.027 200.982 260.057 188.374 249.413 179.343C243.266 174.133 235.852 175.185 232.233 182.398C229.993 186.85 228.539 192.007 228.082 196.97C226.281 216.665 223.5 235.993 215.231 254.308C203.445 280.431 175.967 296.366 147.627 291.924C138.089 290.429 128.889 286.788 119.533 284.126C127.291 289.223 135.352 294.271 144.11 297.391C163.362 304.254 183.095 305.56 203.547 302.29C230.517 297.98 252.981 286.395 269.806 265.081Z" fill="#E8E42E"/>
<path d="M329.453 203.796C328.7 198.23 326.485 192.348 323.289 187.745C319.189 181.821 312.053 182.833 308.367 189.041C306.93 191.449 305.78 194.16 305.163 196.883C303.108 205.918 301.164 214.987 299.515 224.104C294.51 251.782 280.948 274.023 257.03 289.229C248.161 294.867 238.32 299.002 228.944 303.817C229.198 303.854 229.764 304.047 230.297 303.989C231.802 303.825 233.315 303.634 234.803 303.321C266.533 296.64 292.421 280.52 312.552 255.229C324.532 240.178 332.091 223.468 329.453 203.796Z" fill="#E8E42E"/>
<path d="M181.175 273.784C195.412 267.77 206.032 253.227 205.939 237.97C195.083 252.934 181.428 258.725 165.272 256.657C155.591 255.42 146.046 252.35 136.681 249.318C121.789 244.509 106.894 241.367 91.334 244.676C91.3027 244.657 91.2714 244.639 91.241 244.62C62.4952 226.736 44.7404 200.879 39.1519 166.721C26.9011 91.8063 93.0503 26.2126 167.994 39.0987C210.648 46.4309 240.865 70.8884 255.187 110.954C262.788 132.209 264.495 152.967 260.251 172.713C265.916 178.183 269.272 184.47 271.344 190.968C274.134 185.33 279.655 181.217 285.81 181.006C286.004 180.998 286.199 180.998 286.385 180.998C289.75 180.998 292.852 182.051 295.439 183.872C305.813 141.446 296.843 96.5175 269.272 59.8733C226.855 3.4996 154.002 -15.3535 89.4908 13.3601C43.5398 33.8229 13.8978 69.4136 4.26794 118.506C-7.51785 178.571 11.1923 227.368 56.3486 264.846C56.4112 264.899 56.478 264.951 56.5414 265.004C55.6621 266 54.793 267.02 53.9416 268.092C53.2525 268.948 52.583 269.837 51.9142 270.743C54.3889 270.242 55.3831 270.286 56.1085 269.858C56.166 269.82 56.2227 269.792 56.2802 269.762C67.759 263.076 80.0809 262.222 92.5921 265.097C92.8068 265.141 93.03 265.194 93.2456 265.247C103.311 267.667 113.087 271.331 123.07 274.178C142.461 279.716 161.89 281.94 181.175 273.784Z" fill="#E8E42E"/>
<path d="M224.285 137.447C224.192 143.542 229.274 149.328 234.71 149.315C239.876 149.304 243.401 145.333 243.351 139.586C243.308 133.503 238.565 127.886 233.383 127.779C228.589 127.68 224.361 132.174 224.285 137.447Z" fill="#E8E42E"/>
<path d="M277.542 203.339C277.686 208.264 281.609 212.411 285.946 212.223C290.672 212.018 294.037 207.883 293.944 202.383C293.859 197.157 290.334 193.319 285.768 193.479C281.431 193.63 277.398 198.459 277.542 203.339Z" fill="#E8E42E"/>
<path d="M197.696 204.495C197.535 209.057 201.221 213.304 205.381 213.355C209.608 213.406 212.796 209.862 212.813 205.092C212.83 200.419 209.693 196.758 205.525 196.572C201.281 196.383 197.856 199.853 197.696 204.495Z" fill="#E8E42E"/>
</g>
<defs>
<clipPath id="clip0_14_97">
<rect width="329.156" height="303.93" fill="white" transform="matrix(1 0 0 -1 0.821991 304)"/>
</clipPath>
</defs>
</svg>
