<?xml version="1.0" encoding="UTF-8" standalone="no"?>
<!-- Created with Inkscape (http://www.inkscape.org/) -->

<svg
   version="1.1"
   id="svg2"
   width="2979.8132"
   height="1066.6667"
   viewBox="0 0 2979.8132 1066.6667"
   sodipodi:docname="quadsparkle.eps"
   xmlns:inkscape="http://www.inkscape.org/namespaces/inkscape"
   xmlns:sodipodi="http://sodipodi.sourceforge.net/DTD/sodipodi-0.dtd"
   xmlns="http://www.w3.org/2000/svg"
   xmlns:svg="http://www.w3.org/2000/svg">
  <defs
     id="defs6" />
  <sodipodi:namedview
     id="namedview4"
     pagecolor="#ffffff"
     bordercolor="#000000"
     borderopacity="0.25"
     inkscape:showpageshadow="2"
     inkscape:pageopacity="0.0"
     inkscape:pagecheckerboard="0"
     inkscape:deskcolor="#d1d1d1" />
  <g
     id="g8"
     inkscape:groupmode="layer"
     inkscape:label="ink_ext_XXXXXX"
     transform="matrix(1.3333333,0,0,-1.3333333,0,1066.6667)">
    <g
       id="g10"
       transform="scale(0.1)">
      <path
         d="m 22348.6,0 h -8000 v 8000 h 8000 V 0"
         style="fill:#313372;fill-opacity:1;fill-rule:nonzero;stroke:none"
         id="path12" />
      <path
         d="M 14148.6,0 H 6148.58 V 8000 H 14148.6 V 0"
         style="fill:#0e0f0e;fill-opacity:1;fill-rule:nonzero;stroke:none"
         id="path14" />
      <path
         d="m 2291.56,4628.41 c 62,113.6 125.5,226.3 194.8,350.8 -26,0 -45.3,0.4 -64.5,-0.1 -317.4,-8.5 -634.7,-16.6 -952,-26.6 -37.7,-1.2 -76.2,-9.5 -112.6,-20.3 -282.5,-83.4 -505.201,-353.9 -531.502,-647.2 -9.699,-107.9 1.699,-213.6 58.601,-318.7 12.598,23.3 23.899,39.6 30.7,57.7 43.601,116.8 126.801,168.8 250.801,156.3 14.5,-1.5 29.5,1.7 43.7,-0.6 58.8,-9.5 89.8,17.1 119,68.4 92.6,163 218.8,293.7 414.4,316.5 157.1,18.3 316.6,16.3 475.1,20.2 36,0.9 56.9,13.1 73.5,43.6"
         style="fill:#e8e42e;fill-opacity:1;fill-rule:nonzero;stroke:none"
         id="path16" />
      <path
         d="m 2514.06,4316.11 c -66.5,-110 -132.7,-214.1 -193.7,-321.2 -106.7,-187.6 -265.3,-275.4 -481.3,-271.1 -231.5,4.7 -463.1,2.5 -694.6,0.9 -21.6,-0.1 -53.4,-10.8 -62.9,-26.9 -72.3,-121.9 -140.103,-246.5 -212.103,-375.2 49.801,0 91.402,0.7 133.003,-0.1 284.3,-5.3 568.6,-13.8 853,-14.6 76.8,-0.2 159.4,8.5 229.7,37 293.2,118.8 451.3,342.5 487.5,656.3 12.6,109.9 6.8,213.4 -58.6,314.9"
         style="fill:#e8e42e;fill-opacity:1;fill-rule:nonzero;stroke:none"
         id="path18" />
      <path
         d="m 1397.36,4178.81 c 68.9,3.2 135.5,5.1 202,9.7 32.5,2.3 61.5,4.4 71,-44.2 62.6,109.3 125.2,218.6 188.8,329.6 -179.8,35.7 -403.8,-106.9 -461.8,-295.1"
         style="fill:#e8e42e;fill-opacity:1;fill-rule:nonzero;stroke:none"
         id="path20" />
      <path
         d="m 1974.26,4482.91 c -10.8,-0.2 -26.3,-7.3 -31.3,-16 -52.4,-92.1 -103.1,-185.2 -153.4,-276.6 79.1,0 151.6,-1.6 224,1.3 16.3,0.6 38.6,12.8 46.9,26.5 50.6,83.9 97.9,169.7 152.3,265.5 -86.7,0 -162.6,0.6 -238.5,-0.7"
         style="fill:#e8e42e;fill-opacity:1;fill-rule:nonzero;stroke:none"
         id="path22" />
      <path
         d="m 1977.56,4038.91 c -72.2,-2.3 -135.7,-71 -134.7,-145.7 0.7,-57.9 27.4,-82.2 90.6,-82.4 62.6,-0.2 134.4,77.7 136.3,147.8 1.1,44 -42.4,81.9 -92.2,80.3"
         style="fill:#e8e42e;fill-opacity:1;fill-rule:nonzero;stroke:none"
         id="path24" />
      <path
         d="m 1049.86,3891.71 c 0.6,-57.8 18.2,-75.9 73.4,-75.8 73.1,0.2 143.2,70.7 142.7,143.7 -0.2,38.8 -41.7,76.2 -84.4,76.3 -72.9,0 -132.6,-65.3 -131.7,-144.2"
         style="fill:#e8e42e;fill-opacity:1;fill-rule:nonzero;stroke:none"
         id="path26" />
      <path
         d="m 3185.5,2682.69 c 71.12,90.38 122.09,198.08 172.53,302.56 19.92,41.26 29.15,101.73 -21.17,135.91 -51.08,34.69 -99.6,5.57 -141.91,-25.84 -31.73,-23.54 -59.81,-52.01 -88.99,-77.83 0,92.68 5.47,183.9 -1.23,274.22 -11.25,151.54 -34.54,301.14 -160.47,408.3 -72.64,61.82 -160.42,49.34 -203.22,-36.25 -26.42,-52.82 -43.69,-114.01 -49.05,-172.9 -21.26,-233.69 -54.18,-463.03 -151.96,-680.34 -139.48,-309.97 -464.43,-499.04 -799.64,-446.34 -112.83,17.74 -221.65,60.95 -332.3,92.53 91.75,-60.48 187.1,-120.38 290.64,-157.4 227.72,-81.43 461.1,-96.92 703.08,-58.12 319.02,51.14 584.69,188.6 783.69,441.5"
         style="fill:#e8e42e;fill-opacity:1;fill-rule:nonzero;stroke:none"
         id="path28" />
      <path
         d="m 3890.93,3409.86 c -8.84,66.05 -35.07,135.84 -72.8,190.46 -48.55,70.28 -132.95,58.28 -176.57,-15.38 -16.93,-28.58 -30.6,-60.74 -37.92,-93.05 -24.3,-107.21 -47.22,-214.82 -66.74,-322.99 -59.25,-328.41 -219.58,-592.32 -502.53,-772.74 -104.93,-66.9 -221.25,-115.96 -332.24,-173.09 3.1,-0.44 9.72,-2.73 16.02,-2.05 17.85,1.95 35.74,4.22 53.29,7.93 375.34,79.28 681.5,270.54 919.61,570.64 141.7,178.58 231.14,376.86 199.88,610.27"
         style="fill:#e8e42e;fill-opacity:1;fill-rule:nonzero;stroke:none"
         id="path30" />
      <path
         d="m 2133.22,2531.36 c 168.36,71.36 293.95,243.92 292.9,424.95 -128.46,-177.56 -289.98,-246.27 -481.02,-221.73 -114.52,14.68 -227.47,51.11 -338.18,87.08 -176.14,57.06 -352.32,94.34 -536.36,55.08 -0.37,0.23 -0.74,0.44 -1.1,0.67 -340.003,212.2 -550.003,519 -616.101,924.3 -144.902,888.9 637.501,1667.2 1523.901,1514.3 504.5,-87 861.9,-377.2 1031.3,-852.6 89.9,-252.2 110.1,-498.5 59.9,-732.8 67,-64.9 106.7,-139.5 131.2,-216.6 33,66.9 98.3,115.7 171.1,118.2 2.3,0.1 4.6,0.1 6.8,0.1 39.8,0 76.5,-12.5 107.1,-34.1 122.7,503.4 16.6,1036.5 -309.5,1471.3 -501.7,668.9 -1363.4,892.6 -2126.4,551.9 -543.502,-242.8 -894.104,-665.1 -1008.0022,-1247.6 -139.3984,-712.7 81.8982,-1291.7 616.0002,-1736.4 0.746,-0.63 1.535,-1.24 2.281,-1.87 -10.394,-11.82 -20.684,-23.92 -30.754,-36.64 -8.148,-10.16 -16.066,-20.71 -23.976,-31.46 29.273,5.95 41.031,5.42 49.617,10.5 0.672,0.45 1.347,0.79 2.027,1.14 135.762,79.33 281.512,89.47 429.487,55.36 2.54,-0.53 5.18,-1.16 7.73,-1.79 119.05,-28.71 234.68,-72.18 352.76,-105.96 229.34,-65.71 459.18,-92.1 687.29,4.67"
         style="fill:#e8e42e;fill-opacity:1;fill-rule:nonzero;stroke:none"
         id="path32" />
      <path
         d="m 2647.05,4197.13 c -1.07,-72.32 59.06,-140.97 123.37,-140.82 61.04,0.13 102.75,47.25 102.21,115.44 -0.57,72.18 -56.7,138.82 -117.99,140.09 -56.66,1.18 -106.66,-52.14 -107.59,-114.71"
         style="fill:#e8e42e;fill-opacity:1;fill-rule:nonzero;stroke:none"
         id="path34" />
      <path
         d="m 3276.99,3415.28 c 1.7,-58.44 48.08,-107.64 99.35,-105.41 55.94,2.43 95.72,51.49 94.66,116.75 -1.02,62.02 -42.68,107.55 -96.68,105.66 -51.37,-1.8 -99.03,-59.09 -97.33,-117"
         style="fill:#e8e42e;fill-opacity:1;fill-rule:nonzero;stroke:none"
         id="path36" />
      <path
         d="m 2332.57,3401.56 c -1.87,-54.13 41.7,-104.52 90.89,-105.12 49.97,-0.61 87.68,41.44 87.89,98.04 0.21,55.45 -36.83,98.89 -86.21,101.09 -50.13,2.24 -90.67,-38.93 -92.57,-94.01"
         style="fill:#e8e42e;fill-opacity:1;fill-rule:nonzero;stroke:none"
         id="path38" />
      <path
         d="m 10656,4628.41 c 62,113.6 125.5,226.3 194.8,350.8 -26,0 -45.3,0.4 -64.5,-0.1 -317.4,-8.5 -634.7,-16.6 -952.02,-26.6 -37.7,-1.2 -76.2,-9.5 -112.6,-20.3 -282.5,-83.4 -505.2,-353.9 -531.5,-647.2 -9.7,-107.9 1.7,-213.6 58.6,-318.7 12.6,23.3 23.9,39.6 30.7,57.7 43.6,116.8 126.8,168.8 250.8,156.3 14.5,-1.5 29.5,1.7 43.7,-0.6 58.8,-9.5 89.8,17.1 119,68.4 92.6,163 218.8,293.7 414.42,316.5 157.1,18.3 316.6,16.3 475.1,20.2 36,0.9 56.9,13.1 73.5,43.6"
         style="fill:#e8e42e;fill-opacity:1;fill-rule:nonzero;stroke:none"
         id="path40" />
      <path
         d="m 10878.5,4316.11 c -66.5,-110 -132.7,-214.1 -193.7,-321.2 -106.7,-187.6 -265.3,-275.4 -481.3,-271.1 -231.52,4.7 -463.12,2.5 -694.62,0.9 -21.6,-0.1 -53.4,-10.8 -62.9,-26.9 -72.3,-121.9 -140.1,-246.5 -212.1,-375.2 49.8,0 91.4,0.7 133,-0.1 284.3,-5.3 568.6,-13.8 853.02,-14.6 76.8,-0.2 159.4,8.5 229.7,37 293.2,118.8 451.3,342.5 487.5,656.3 12.6,109.9 6.8,213.4 -58.6,314.9"
         style="fill:#e8e42e;fill-opacity:1;fill-rule:nonzero;stroke:none"
         id="path42" />
      <path
         d="m 9761.78,4178.81 c 68.9,3.2 135.5,5.1 202,9.7 32.5,2.3 61.52,4.4 71.02,-44.2 62.6,109.3 125.2,218.6 188.8,329.6 -179.8,35.7 -403.82,-106.9 -461.82,-295.1"
         style="fill:#e8e42e;fill-opacity:1;fill-rule:nonzero;stroke:none"
         id="path44" />
      <path
         d="m 10338.7,4482.91 c -10.8,-0.2 -26.3,-7.3 -31.3,-16 -52.4,-92.1 -103.1,-185.2 -153.4,-276.6 79.1,0 151.6,-1.6 224,1.3 16.3,0.6 38.6,12.8 46.9,26.5 50.6,83.9 97.9,169.7 152.3,265.5 -86.7,0 -162.6,0.6 -238.5,-0.7"
         style="fill:#e8e42e;fill-opacity:1;fill-rule:nonzero;stroke:none"
         id="path46" />
      <path
         d="m 10342,4038.91 c -72.2,-2.3 -135.7,-71 -134.7,-145.7 0.7,-57.9 27.4,-82.2 90.6,-82.4 62.6,-0.2 134.4,77.7 136.3,147.8 1.1,44 -42.4,81.9 -92.2,80.3"
         style="fill:#e8e42e;fill-opacity:1;fill-rule:nonzero;stroke:none"
         id="path48" />
      <path
         d="m 9414.28,3891.71 c 0.6,-57.8 18.2,-75.9 73.4,-75.8 73.1,0.2 143.2,70.7 142.7,143.7 -0.2,38.8 -41.7,76.2 -84.4,76.3 -72.9,0 -132.6,-65.3 -131.7,-144.2"
         style="fill:#e8e42e;fill-opacity:1;fill-rule:nonzero;stroke:none"
         id="path50" />
      <path
         d="m 11549.9,2682.69 c 71.1,90.38 122.1,198.08 172.6,302.56 19.9,41.26 29.1,101.73 -21.2,135.91 -51.1,34.69 -99.6,5.57 -141.9,-25.84 -31.8,-23.54 -59.8,-52.01 -89,-77.83 0,92.68 5.5,183.9 -1.3,274.22 -11.2,151.54 -34.5,301.14 -160.4,408.3 -72.7,61.82 -160.4,49.34 -203.2,-36.25 -26.5,-52.82 -43.7,-114.01 -49.1,-172.9 -21.3,-233.69 -54.2,-463.03 -152,-680.34 -139.4,-309.97 -464.4,-499.04 -799.6,-446.34 -112.82,17.74 -221.64,60.95 -332.29,92.53 91.75,-60.48 187.1,-120.38 290.69,-157.4 227.7,-81.43 461.1,-96.92 703,-58.12 319,51.14 584.7,188.6 783.7,441.5"
         style="fill:#e8e42e;fill-opacity:1;fill-rule:nonzero;stroke:none"
         id="path52" />
      <path
         d="m 12255.4,3409.86 c -8.9,66.05 -35.1,135.84 -72.9,190.46 -48.5,70.28 -132.9,58.28 -176.5,-15.38 -17,-28.58 -30.6,-60.74 -37.9,-93.05 -24.3,-107.21 -47.3,-214.82 -66.8,-322.99 -59.2,-328.41 -219.6,-592.32 -502.5,-772.74 -104.9,-66.9 -221.3,-115.96 -332.2,-173.09 3,-0.44 9.7,-2.73 16,-2.05 17.8,1.95 35.7,4.22 53.3,7.93 375.3,79.28 681.5,270.54 919.6,570.64 141.7,178.58 231.1,376.86 199.9,610.27"
         style="fill:#e8e42e;fill-opacity:1;fill-rule:nonzero;stroke:none"
         id="path54" />
      <path
         d="m 10497.6,2531.36 c 168.4,71.36 294,243.92 292.9,424.95 -128.4,-177.56 -289.9,-246.27 -481,-221.73 -114.5,14.68 -227.4,51.11 -338.16,87.08 -176.14,57.06 -352.32,94.34 -536.36,55.08 -0.37,0.23 -0.74,0.44 -1.1,0.67 -340,212.2 -550,519 -616.1,924.3 -144.9,888.9 637.5,1667.2 1523.92,1514.3 504.5,-87 861.9,-377.2 1031.3,-852.6 89.9,-252.2 110.1,-498.5 59.9,-732.8 67,-64.9 106.7,-139.5 131.2,-216.6 33,66.9 98.3,115.7 171.1,118.2 2.3,0.1 4.6,0.1 6.8,0.1 39.8,0 76.5,-12.5 107.1,-34.1 122.7,503.4 16.6,1036.5 -309.5,1471.3 -501.7,668.9 -1363.4,892.6 -2126.42,551.9 -543.5,-242.8 -894.1,-665.1 -1008,-1247.6 -139.4,-712.7 81.9,-1291.7 616,-1736.4 0.74,-0.63 1.53,-1.24 2.28,-1.87 -10.4,-11.82 -20.68,-23.92 -30.75,-36.64 -8.15,-10.16 -16.07,-20.71 -23.98,-31.46 29.27,5.95 41.03,5.42 49.61,10.5 0.68,0.45 1.35,0.79 2.03,1.14 135.77,79.33 281.51,89.47 429.49,55.36 2.54,-0.53 5.18,-1.16 7.73,-1.79 119.05,-28.71 234.68,-72.18 352.76,-105.96 229.35,-65.71 459.15,-92.1 687.25,4.67"
         style="fill:#e8e42e;fill-opacity:1;fill-rule:nonzero;stroke:none"
         id="path56" />
      <path
         d="m 11011.5,4197.13 c -1.1,-72.32 59,-140.97 123.3,-140.82 61.1,0.13 102.8,47.25 102.2,115.44 -0.5,72.18 -56.6,138.82 -117.9,140.09 -56.7,1.18 -106.7,-52.14 -107.6,-114.71"
         style="fill:#e8e42e;fill-opacity:1;fill-rule:nonzero;stroke:none"
         id="path58" />
      <path
         d="m 11641.4,3415.28 c 1.7,-58.44 48.1,-107.64 99.4,-105.41 55.9,2.43 95.7,51.49 94.6,116.75 -1,62.02 -42.7,107.55 -96.7,105.66 -51.3,-1.8 -99,-59.09 -97.3,-117"
         style="fill:#e8e42e;fill-opacity:1;fill-rule:nonzero;stroke:none"
         id="path60" />
      <path
         d="m 10697,3401.56 c -1.9,-54.13 41.7,-104.52 90.9,-105.12 50,-0.61 87.7,41.44 87.9,98.04 0.2,55.45 -36.9,98.89 -86.2,101.09 -50.2,2.24 -90.7,-38.93 -92.6,-94.01"
         style="fill:#e8e42e;fill-opacity:1;fill-rule:nonzero;stroke:none"
         id="path62" />
      <path
         d="m 19020.4,4628.41 c 62,113.6 125.5,226.3 194.8,350.8 -26,0 -45.3,0.4 -64.5,-0.1 -317.4,-8.5 -634.7,-16.6 -952,-26.6 -37.7,-1.2 -76.2,-9.5 -112.6,-20.3 -282.5,-83.4 -505.2,-353.9 -531.5,-647.2 -9.7,-107.9 1.7,-213.6 58.6,-318.7 12.6,23.3 23.9,39.6 30.7,57.7 43.6,116.8 126.8,168.8 250.8,156.3 14.5,-1.5 29.5,1.7 43.7,-0.6 58.8,-9.5 89.8,17.1 119,68.4 92.6,163 218.8,293.7 414.4,316.5 157.1,18.3 316.6,16.3 475.1,20.2 36,0.9 56.9,13.1 73.5,43.6"
         style="fill:#e8e42e;fill-opacity:1;fill-rule:nonzero;stroke:none"
         id="path64" />
      <path
         d="m 19242.9,4316.11 c -66.5,-110 -132.7,-214.1 -193.7,-321.2 -106.7,-187.6 -265.3,-275.4 -481.3,-271.1 -231.5,4.7 -463.1,2.5 -694.6,0.9 -21.6,-0.1 -53.4,-10.8 -62.9,-26.9 -72.3,-121.9 -140.1,-246.5 -212.1,-375.2 49.8,0 91.4,0.7 133,-0.1 284.3,-5.3 568.6,-13.8 853,-14.6 76.8,-0.2 159.4,8.5 229.7,37 293.2,118.8 451.3,342.5 487.5,656.3 12.6,109.9 6.8,213.4 -58.6,314.9"
         style="fill:#e8e42e;fill-opacity:1;fill-rule:nonzero;stroke:none"
         id="path66" />
      <path
         d="m 18126.2,4178.81 c 68.9,3.2 135.5,5.1 202,9.7 32.5,2.3 61.5,4.4 71,-44.2 62.6,109.3 125.2,218.6 188.8,329.6 -179.8,35.7 -403.8,-106.9 -461.8,-295.1"
         style="fill:#e8e42e;fill-opacity:1;fill-rule:nonzero;stroke:none"
         id="path68" />
      <path
         d="m 18703.1,4482.91 c -10.8,-0.2 -26.3,-7.3 -31.3,-16 -52.4,-92.1 -103.1,-185.2 -153.4,-276.6 79.1,0 151.6,-1.6 224,1.3 16.3,0.6 38.6,12.8 46.9,26.5 50.6,83.9 97.9,169.7 152.3,265.5 -86.7,0 -162.6,0.6 -238.5,-0.7"
         style="fill:#e8e42e;fill-opacity:1;fill-rule:nonzero;stroke:none"
         id="path70" />
      <path
         d="m 18706.4,4038.91 c -72.2,-2.3 -135.7,-71 -134.7,-145.7 0.7,-57.9 27.4,-82.2 90.6,-82.4 62.6,-0.2 134.4,77.7 136.3,147.8 1.1,44 -42.4,81.9 -92.2,80.3"
         style="fill:#e8e42e;fill-opacity:1;fill-rule:nonzero;stroke:none"
         id="path72" />
      <path
         d="m 17778.7,3891.71 c 0.6,-57.8 18.2,-75.9 73.4,-75.8 73.1,0.2 143.2,70.7 142.7,143.7 -0.2,38.8 -41.7,76.2 -84.4,76.3 -72.9,0 -132.6,-65.3 -131.7,-144.2"
         style="fill:#e8e42e;fill-opacity:1;fill-rule:nonzero;stroke:none"
         id="path74" />
      <path
         d="m 19914.3,2682.69 c 71.2,90.38 122.1,198.08 172.6,302.56 19.9,41.26 29.1,101.73 -21.2,135.91 -51.1,34.69 -99.6,5.57 -141.9,-25.84 -31.7,-23.54 -59.8,-52.01 -89,-77.83 0,92.68 5.5,183.9 -1.2,274.22 -11.3,151.54 -34.6,301.14 -160.5,408.3 -72.6,61.82 -160.4,49.34 -203.2,-36.25 -26.4,-52.82 -43.7,-114.01 -49.1,-172.9 -21.2,-233.69 -54.2,-463.03 -151.9,-680.34 -139.5,-309.97 -464.5,-499.04 -799.7,-446.34 -112.8,17.74 -221.6,60.95 -332.3,92.53 91.8,-60.48 187.1,-120.38 290.7,-157.4 227.7,-81.43 461.1,-96.92 703.1,-58.12 319,51.14 584.6,188.6 783.6,441.5"
         style="fill:#e8e42e;fill-opacity:1;fill-rule:nonzero;stroke:none"
         id="path76" />
      <path
         d="m 20619.8,3409.86 c -8.9,66.05 -35.1,135.84 -72.8,190.46 -48.6,70.28 -133,58.28 -176.6,-15.38 -16.9,-28.58 -30.6,-60.74 -37.9,-93.05 -24.3,-107.21 -47.2,-214.82 -66.8,-322.99 -59.2,-328.41 -219.5,-592.32 -502.5,-772.74 -104.9,-66.9 -221.2,-115.96 -332.2,-173.09 3.1,-0.44 9.7,-2.73 16,-2.05 17.8,1.95 35.7,4.22 53.3,7.93 375.3,79.28 681.5,270.54 919.6,570.64 141.7,178.58 231.1,376.86 199.9,610.27"
         style="fill:#e8e42e;fill-opacity:1;fill-rule:nonzero;stroke:none"
         id="path78" />
      <path
         d="m 18862.1,2531.36 c 168.3,71.36 293.9,243.92 292.9,424.95 -128.5,-177.56 -290,-246.27 -481.1,-221.73 -114.5,14.68 -227.4,51.11 -338.1,87.08 -176.2,57.06 -352.4,94.34 -536.4,55.08 -0.4,0.23 -0.7,0.44 -1.1,0.67 -340,212.2 -550,519 -616.1,924.3 -144.9,888.9 637.5,1667.2 1523.9,1514.3 504.5,-87 861.9,-377.2 1031.3,-852.6 89.9,-252.2 110.1,-498.5 59.9,-732.8 67,-64.9 106.7,-139.5 131.2,-216.6 33,66.9 98.3,115.7 171.1,118.2 2.3,0.1 4.6,0.1 6.8,0.1 39.8,0 76.5,-12.5 107.1,-34.1 122.7,503.4 16.6,1036.5 -309.5,1471.3 -501.7,668.9 -1363.4,892.6 -2126.4,551.9 -543.5,-242.8 -894.1,-665.1 -1008,-1247.6 -139.4,-712.7 81.9,-1291.7 616,-1736.4 0.7,-0.63 1.5,-1.24 2.3,-1.87 -10.4,-11.82 -20.7,-23.92 -30.8,-36.64 -8.1,-10.16 -16,-20.71 -24,-31.46 29.3,5.95 41.1,5.42 49.7,10.5 0.6,0.45 1.3,0.79 2,1.14 135.8,79.33 281.5,89.47 429.5,55.36 2.5,-0.53 5.2,-1.16 7.7,-1.79 119.1,-28.71 234.7,-72.18 352.8,-105.96 229.3,-65.71 459.2,-92.1 687.3,4.67"
         style="fill:#e8e42e;fill-opacity:1;fill-rule:nonzero;stroke:none"
         id="path80" />
      <path
         d="m 19375.9,4197.13 c -1.1,-72.32 59.1,-140.97 123.4,-140.82 61,0.13 102.7,47.25 102.2,115.44 -0.6,72.18 -56.7,138.82 -118,140.09 -56.7,1.18 -106.7,-52.14 -107.6,-114.71"
         style="fill:#e8e42e;fill-opacity:1;fill-rule:nonzero;stroke:none"
         id="path82" />
      <path
         d="m 20005.8,3415.28 c 1.7,-58.44 48.1,-107.64 99.4,-105.41 55.9,2.43 95.7,51.49 94.6,116.75 -1,62.02 -42.6,107.55 -96.6,105.66 -51.4,-1.8 -99.1,-59.09 -97.4,-117"
         style="fill:#e8e42e;fill-opacity:1;fill-rule:nonzero;stroke:none"
         id="path84" />
      <path
         d="m 19061.4,3401.56 c -1.9,-54.13 41.7,-104.52 90.9,-105.12 50,-0.61 87.7,41.44 87.9,98.04 0.2,55.45 -36.8,98.89 -86.2,101.09 -50.2,2.24 -90.7,-38.93 -92.6,-94.01"
         style="fill:#e8e42e;fill-opacity:1;fill-rule:nonzero;stroke:none"
         id="path86" />
    </g>
  </g>
</svg>
